<svg width="16" height="16" viewBox="0 0 16 16" fill="none" xmlns="http://www.w3.org/2000/svg">
<path fill-rule="evenodd" clip-rule="evenodd" d="M1 6C1 4.34315 2.34315 3 4 3H12C13.6569 3 15 4.34315 15 6V12C15 13.6569 13.6569 15 12 15H4C2.34315 15 1 13.6569 1 12V6ZM4 5C3.44772 5 3 5.44772 3 6V12C3 12.5523 3.44772 13 4 13H12C12.5523 13 13 12.5523 13 12V6C13 5.44772 12.5523 5 12 5H4Z" fill="black"/>
<path fill-rule="evenodd" clip-rule="evenodd" d="M1.5 6C1.5 4.61929 2.61929 3.5 4 3.5H12C13.3807 3.5 14.5 4.61929 14.5 6V7.5H1.5V6ZM4 4.5C3.17157 4.5 2.5 5.17157 2.5 6V6.5H13.5V6C13.5 5.17157 12.8284 4.5 12 4.5H4Z" fill="black"/>
<path fill-rule="evenodd" clip-rule="evenodd" d="M6 1C6.55228 1 7 1.44772 7 2V5C7 5.55229 6.55228 6 6 6C5.44772 6 5 5.55229 5 5V2C5 1.44772 5.44772 1 6 1Z" fill="black"/>
<path fill-rule="evenodd" clip-rule="evenodd" d="M10 1C10.5523 1 11 1.44772 11 2V5C11 5.55229 10.5523 6 10 6C9.44772 6 9 5.55229 9 5V2C9 1.44772 9.44772 1 10 1Z" fill="black"/>
<path fill-rule="evenodd" clip-rule="evenodd" d="M6 10C6 10.5523 5.55228 11 5 11C4.44772 11 4 10.5523 4 10C4 9.44772 4.44772 9 5 9C5.55228 9 6 9.44772 6 10ZM9 10C9 10.5523 8.55228 11 8 11C7.44772 11 7 10.5523 7 10C7 9.44772 7.44772 9 8 9C8.55228 9 9 9.44772 9 10ZM11 11C11.5523 11 12 10.5523 12 10C12 9.44772 11.5523 9 11 9C10.4477 9 10 9.44772 10 10C10 10.5523 10.4477 11 11 11Z" fill="black"/>
</svg>
