<svg width="16" height="16" viewBox="0 0 16 16" fill="none" xmlns="http://www.w3.org/2000/svg">
<path fill-rule="evenodd" clip-rule="evenodd" d="M12 5H4H3C2.44772 5 2 5.44772 2 6V12C2 12.5523 2.44772 13 3 13H13C13.5523 13 14 12.5523 14 12V6C14 5.44772 13.5523 5 13 5H12ZM9 0C10.6569 0 12 1.34315 12 3H13C14.6569 3 16 4.34315 16 6V12C16 13.6569 14.6569 15 13 15H3C1.34315 15 0 13.6569 0 12V6C0 4.34315 1.34315 3 3 3H4C4 1.34315 5.34315 0 7 0H9ZM6 3H10C10 2.44772 9.55228 2 9 2H7C6.44772 2 6 2.44772 6 3Z" fill="black"/>
<path fill-rule="evenodd" clip-rule="evenodd" d="M8 8C7.44772 8 7 8.44772 7 9C7 9.55228 7.44772 10 8 10C8.55228 10 9 9.55228 9 9C9 8.44772 8.55228 8 8 8ZM5 9C5 7.34315 6.34315 6 8 6C9.65685 6 11 7.34315 11 9C11 10.6569 9.65685 12 8 12C6.34315 12 5 10.6569 5 9Z" fill="black"/>
</svg>
