<svg width="16" height="16" viewBox="0 0 16 16" fill="none" xmlns="http://www.w3.org/2000/svg">
<path fill-rule="evenodd" clip-rule="evenodd" d="M3.05028 3.05025C3.4408 2.65972 4.07397 2.65972 4.46449 3.05025L12.9498 11.5355C13.3403 11.9261 13.3403 12.5592 12.9498 12.9497C12.5592 13.3403 11.9261 13.3403 11.5356 12.9497L3.05028 4.46446C2.65975 4.07394 2.65975 3.44077 3.05028 3.05025Z" fill="black"/>
<path fill-rule="evenodd" clip-rule="evenodd" d="M12.9497 3.05025C13.3402 3.44077 13.3402 4.07394 12.9497 4.46446L4.46444 12.9497C4.07392 13.3403 3.44075 13.3403 3.05023 12.9497C2.6597 12.5592 2.6597 11.9261 3.05023 11.5355L11.5355 3.05025C11.926 2.65972 12.5592 2.65972 12.9497 3.05025Z" fill="black"/>
</svg>
