<svg width="24" height="24" viewBox="0 0 24 24" fill="none" xmlns="http://www.w3.org/2000/svg">
<path fill-rule="evenodd" clip-rule="evenodd" d="M6 13C6 9.68629 8.68629 7 12 7C15.3137 7 18 9.68629 18 13V21C18 21.5523 17.5523 22 17 22H7C6.44772 22 6 21.5523 6 21V13ZM12 9C9.79086 9 8 10.7909 8 13V20H16V13C16 10.7909 14.2091 9 12 9Z" fill="black"/>
<path fill-rule="evenodd" clip-rule="evenodd" d="M3 21C3 20.4477 3.44772 20 4 20H20C20.5523 20 21 20.4477 21 21C21 21.5523 20.5523 22 20 22H4C3.44772 22 3 21.5523 3 21Z" fill="black"/>
<path fill-rule="evenodd" clip-rule="evenodd" d="M2.79289 4.29289C3.18342 3.90237 3.81658 3.90237 4.20711 4.29289L6.20711 6.29289C6.59763 6.68342 6.59763 7.31658 6.20711 7.70711C5.81658 8.09763 5.18342 8.09763 4.79289 7.70711L2.79289 5.70711C2.40237 5.31658 2.40237 4.68342 2.79289 4.29289Z" fill="black"/>
<path fill-rule="evenodd" clip-rule="evenodd" d="M17.2929 7.70711C16.9024 7.31658 16.9024 6.68342 17.2929 6.29289L19.2929 4.29289C19.6834 3.90237 20.3166 3.90237 20.7071 4.29289C21.0976 4.68342 21.0976 5.31658 20.7071 5.70711L18.7071 7.70711C18.3166 8.09763 17.6834 8.09763 17.2929 7.70711Z" fill="black"/>
<path fill-rule="evenodd" clip-rule="evenodd" d="M12 1C12.5523 1 13 1.44772 13 2V4.5C13 5.05228 12.5523 5.5 12 5.5C11.4477 5.5 11 5.05228 11 4.5V2C11 1.44772 11.4477 1 12 1Z" fill="black"/>
<path fill-rule="evenodd" clip-rule="evenodd" d="M10 13C10.5523 13 11 13.4477 11 14V16.5C11 17.0523 10.5523 17.5 10 17.5C9.44772 17.5 9 17.0523 9 16.5V14C9 13.4477 9.44772 13 10 13Z" fill="black"/>
</svg>
