<svg width="16" height="16" viewBox="0 0 16 16" fill="none" xmlns="http://www.w3.org/2000/svg">
<path fill-rule="evenodd" clip-rule="evenodd" d="M4 15C2.34315 15 1 13.6569 1 12L1 4C0.999999 2.34315 2.34315 1 4 1L7.45454 1C8.00683 1 8.45454 1.44772 8.45454 2C8.45454 2.55228 8.00683 3 7.45454 3L4 3C3.44771 3 3 3.44772 3 4L3 12C3 12.5523 3.44772 13 4 13L12 13C12.5523 13 13 12.5523 13 12L13 6.8C13 6.24771 13.4477 5.8 14 5.8C14.5523 5.8 15 6.24771 15 6.8L15 12C15 13.6569 13.6569 15 12 15L4 15Z" fill="black"/>
<path fill-rule="evenodd" clip-rule="evenodd" d="M12.5 1.13397C12.9783 1.41011 13.1422 2.0217 12.866 2.5L9.86602 7.69615C9.58988 8.17444 8.97829 8.33832 8.5 8.06218C8.0217 7.78603 7.85783 7.17444 8.13397 6.69615L11.134 1.5C11.4101 1.0217 12.0217 0.85783 12.5 1.13397Z" fill="black"/>
</svg>
