<svg width="16" height="16" viewBox="0 0 16 16" fill="none" xmlns="http://www.w3.org/2000/svg">
<path fill-rule="evenodd" clip-rule="evenodd" d="M7.32644 2.26011L5.29023 4.29632C5.12992 4.45662 5.12992 4.71653 5.29023 4.87683C5.45053 5.03713 5.71043 5.03713 5.87074 4.87683L8.31789 2.42968C9.64692 1.70077 11.349 1.89925 12.4749 3.02513C13.8417 4.39196 13.8417 6.60804 12.4749 7.97487L10.4749 9.97487L8 12.4497L5.52513 9.97487L3.52513 7.97487C2.15829 6.60804 2.15829 4.39196 3.52513 3.02513C4.55279 1.99746 6.06053 1.74245 7.32644 2.26011Z" fill="black"/>
<path fill-rule="evenodd" clip-rule="evenodd" d="M9.38909 12.0851L9.41819 12.0612C11.4889 12.2446 13 12.8194 13 13.5C13 14.3285 10.7614 15 8 15C5.23858 15 3 14.3285 3 13.5C3 12.8194 4.51112 12.2446 6.5818 12.0612L6.6109 12.0851C5.65339 12.2104 5 12.4611 5 12.75C5 13.1642 6.34315 13.5 8 13.5C9.65685 13.5 11 13.1642 11 12.75C11 12.4611 10.3466 12.2104 9.38909 12.0851Z" fill="black"/>
</svg>
