<svg width="24" height="24" viewBox="0 0 24 24" fill="none" xmlns="http://www.w3.org/2000/svg">
<g opacity="0.5">
<path fill-rule="evenodd" clip-rule="evenodd" d="M14.8484 6.29289C15.239 5.90237 15.8721 5.90237 16.2627 6.29289L21.34 11.3702L16.3364 17.6247C15.9914 18.056 15.3621 18.1259 14.9309 17.7809C14.4996 17.4359 14.4297 16.8066 14.7747 16.3753L17.9194 12.4444H10C9.44772 12.4444 9 11.9967 9 11.4444C9 10.8922 9.44772 10.4444 10 10.4444H17.5858L14.8484 7.70711C14.4579 7.31658 14.4579 6.68342 14.8484 6.29289Z" fill="white"/>
</g>
<path fill-rule="evenodd" clip-rule="evenodd" d="M3 7C3 4.23858 5.23858 2 8 2H14C14.5523 2 15 2.44772 15 3C15 3.55228 14.5523 4 14 4H8C6.34315 4 5 5.34315 5 7V17C5 18.6569 6.34315 20 8 20H14C14.5523 20 15 20.4477 15 21C15 21.5523 14.5523 22 14 22H8C5.23858 22 3 19.7614 3 17V7Z" fill="white"/>
</svg>
