<svg width="24" height="24" viewBox="0 0 24 24" fill="none" xmlns="http://www.w3.org/2000/svg">
<path fill-rule="evenodd" clip-rule="evenodd" d="M12 3C7.02944 3 3 7.02944 3 12C3 16.9706 7.02944 21 12 21C16.9706 21 21 16.9706 21 12C21 7.02944 16.9706 3 12 3ZM1 12C1 5.92487 5.92487 1 12 1C18.0751 1 23 5.92487 23 12C23 18.0751 18.0751 23 12 23C5.92487 23 1 18.0751 1 12Z" fill="white"/>
<g opacity="0.5">
<path fill-rule="evenodd" clip-rule="evenodd" d="M12 16C10.8852 16 9.76776 16.3021 8.70776 16.9078C7.64533 17.5149 6.65659 18.4185 5.80966 19.5869L4.19034 18.4131C5.18191 17.0452 6.37579 15.9369 7.71549 15.1713C9.05762 14.4044 10.5148 14 12 14C13.4852 14 14.9424 14.4044 16.2845 15.1713C17.6242 15.9369 18.8181 17.0452 19.8097 18.4131L18.1903 19.5869C17.3434 18.4185 16.3547 17.5149 15.2922 16.9078C14.2322 16.3021 13.1148 16 12 16Z" fill="white"/>
<path fill-rule="evenodd" clip-rule="evenodd" d="M12 8C10.3431 8 9 9.34315 9 11C9 12.6569 10.3431 14 12 14C13.6569 14 15 12.6569 15 11C15 9.34315 13.6569 8 12 8ZM7 11C7 8.23858 9.23858 6 12 6C14.7614 6 17 8.23858 17 11C17 13.7614 14.7614 16 12 16C9.23858 16 7 13.7614 7 11Z" fill="white"/>
</g>
</svg>
