<svg width="24" height="24" viewBox="0 0 24 24" fill="none" xmlns="http://www.w3.org/2000/svg">
<g opacity="0.5">
<path fill-rule="evenodd" clip-rule="evenodd" d="M5 4C5 2.34315 6.34315 1 8 1H16C17.6569 1 19 2.34315 19 4V12H17V4C17 3.44772 16.5523 3 16 3H8C7.44772 3 7 3.44772 7 4V12H5V4Z" fill="white"/>
</g>
<path fill-rule="evenodd" clip-rule="evenodd" d="M10 8C10 7.44772 10.4477 7 11 7L13 7C13.5523 7 14 7.44772 14 8C14 8.55228 13.5523 9 13 9H11C10.4477 9 10 8.55228 10 8Z" fill="white"/>
<path fill-rule="evenodd" clip-rule="evenodd" d="M2 14C2 12.3431 3.34315 11 5 11H5.5C6.88071 11 8 12.1193 8 13.5C8 13.7761 8.22386 14 8.5 14H15.5C15.7761 14 16 13.7761 16 13.5C16 12.1193 17.1193 11 18.5 11H19C20.6569 11 22 12.3431 22 14V19C22 20.6569 20.6569 22 19 22H5C3.34315 22 2 20.6569 2 19V14ZM5 13C4.44772 13 4 13.4477 4 14V19C4 19.5523 4.44772 20 5 20H19C19.5523 20 20 19.5523 20 19V14C20 13.4477 19.5523 13 19 13H18.5C18.2239 13 18 13.2239 18 13.5C18 14.8807 16.8807 16 15.5 16H8.5C7.11929 16 6 14.8807 6 13.5C6 13.2239 5.77614 13 5.5 13H5Z" fill="white"/>
</svg>
