<svg width="16" height="16" viewBox="0 0 16 16" fill="none" xmlns="http://www.w3.org/2000/svg">
<g clip-path="url(#clip0_2_114)">
<path fill-rule="evenodd" clip-rule="evenodd" d="M14.5804 8.69666C14.882 9.15936 14.7514 9.7789 14.2887 10.0804L8 14.179L1.71134 10.0804C1.24864 9.7789 1.11801 9.15936 1.41956 8.69666C1.72111 8.23397 2.34066 8.10334 2.80335 8.40489L8 11.7917L13.1966 8.40489C13.6593 8.10334 14.2789 8.23397 14.5804 8.69666Z" fill="black"/>
<path fill-rule="evenodd" clip-rule="evenodd" d="M14.5804 3.19666C14.882 3.65936 14.7514 4.2789 14.2887 4.58045L8 8.67895L1.71134 4.58045C1.24864 4.2789 1.11801 3.65936 1.41956 3.19666C1.72111 2.73397 2.34066 2.60334 2.80335 2.90489L8 6.29169L13.1966 2.90489C13.6593 2.60334 14.2789 2.73397 14.5804 3.19666Z" fill="black"/>
</g>
<defs>
<clipPath id="clip0_2_114">
<rect width="16" height="16" fill="white"/>
</clipPath>
</defs>
</svg>
