<svg width="16" height="16" viewBox="0 0 16 16" fill="none" xmlns="http://www.w3.org/2000/svg">
<g clip-path="url(#clip0_2_115)">
<path fill-rule="evenodd" clip-rule="evenodd" d="M1.41956 7.28866C1.11801 6.82597 1.24864 6.20642 1.71134 5.90487L8 1.80637L14.2887 5.90487C14.7514 6.20642 14.882 6.82597 14.5804 7.28866C14.2789 7.75135 13.6593 7.88199 13.1966 7.58044L8 4.19363L2.80335 7.58043C2.34066 7.88199 1.72111 7.75135 1.41956 7.28866Z" fill="black"/>
<path fill-rule="evenodd" clip-rule="evenodd" d="M1.41956 12.7887C1.11801 12.326 1.24864 11.7064 1.71134 11.4049L8 7.30637L14.2887 11.4049C14.7514 11.7064 14.882 12.326 14.5804 12.7887C14.2789 13.2514 13.6593 13.382 13.1966 13.0804L8 9.69363L2.80335 13.0804C2.34066 13.382 1.72111 13.2514 1.41956 12.7887Z" fill="black"/>
</g>
<defs>
<clipPath id="clip0_2_115">
<rect width="16" height="16" fill="white"/>
</clipPath>
</defs>
</svg>
