<svg width="16" height="16" viewBox="0 0 16 16" fill="none" xmlns="http://www.w3.org/2000/svg">
<path fill-rule="evenodd" clip-rule="evenodd" d="M5.5 14L2 9.03444L3.33688 1H7.66312L8.44534 5.701C6.98103 6.57303 6 8.17195 6 10C6 10.8747 6.22459 11.6969 6.61924 12.4121L5.5 14ZM14.75 10C14.75 12.0711 13.0711 13.75 11 13.75C8.92893 13.75 7.25 12.0711 7.25 10C7.25 7.92893 8.92893 6.25 11 6.25C13.0711 6.25 14.75 7.92893 14.75 10ZM10.375 7.5C10.7202 7.5 11 7.77982 11 8.125V10H12.25C12.5952 10 12.875 10.2798 12.875 10.625C12.875 10.9702 12.5952 11.25 12.25 11.25H10.375C10.0298 11.25 9.75 10.9702 9.75 10.625V8.125C9.75 7.77982 10.0298 7.5 10.375 7.5Z" fill="black"/>
</svg>
