<svg width="16" height="16" viewBox="0 0 16 16" fill="none" xmlns="http://www.w3.org/2000/svg">
<path fill-rule="evenodd" clip-rule="evenodd" d="M7 3C4.79086 3 3 4.79086 3 7C3 9.20914 4.79086 11 7 11C9.20914 11 11 9.20914 11 7C11 4.79086 9.20914 3 7 3ZM1 7C1 3.68629 3.68629 1 7 1C10.3137 1 13 3.68629 13 7C13 10.3137 10.3137 13 7 13C3.68629 13 1 10.3137 1 7Z" fill="white"/>
<path opacity="0.5" d="M11.7071 11.7071C12.0976 11.3166 12.7308 11.3166 13.1213 11.7071L13.8284 12.4142C14.2189 12.8047 14.2189 13.4379 13.8284 13.8284C13.4379 14.219 12.8047 14.219 12.4142 13.8284L11.7071 13.1213C11.3166 12.7308 11.3166 12.0976 11.7071 11.7071Z" fill="white"/>
</svg>
