<svg width="24" height="24" viewBox="0 0 24 24" fill="none" xmlns="http://www.w3.org/2000/svg">
<path fill-rule="evenodd" clip-rule="evenodd" d="M1 12C1 9.79086 2.79086 8 5 8H6C6.55228 8 7 8.44772 7 9V15C7 15.5523 6.55228 16 6 16H5C2.79086 16 1 14.2091 1 12ZM5 10C3.89543 10 3 10.8954 3 12C3 13.1046 3.89543 14 5 14V10Z" fill="black"/>
<path fill-rule="evenodd" clip-rule="evenodd" d="M23 12C23 14.2091 21.2091 16 19 16H18C17.4477 16 17 15.5523 17 15V9C17 8.44772 17.4477 8 18 8H19C21.2091 8 23 9.79086 23 12ZM19 14C20.1046 14 21 13.1046 21 12C21 10.8954 20.1046 10 19 10V14Z" fill="black"/>
<path fill-rule="evenodd" clip-rule="evenodd" d="M5 14C5 16.7614 7.23858 19 10 19H11C11.5523 19 12 19.4477 12 20C12 20.5523 11.5523 21 11 21H10C6.13401 21 3 17.866 3 14H5Z" fill="black"/>
<path fill-rule="evenodd" clip-rule="evenodd" d="M12.5 19C12.2239 19 12 19.2239 12 19.5C12 19.7761 12.2239 20 12.5 20C12.7761 20 13 19.7761 13 19.5C13 19.2239 12.7761 19 12.5 19ZM10 19.5C10 18.1193 11.1193 17 12.5 17C13.8807 17 15 18.1193 15 19.5C15 20.8807 13.8807 22 12.5 22C11.1193 22 10 20.8807 10 19.5Z" fill="black"/>
<path fill-rule="evenodd" clip-rule="evenodd" d="M5 9C5 5.13401 8.13401 2 12 2C15.866 2 19 5.13401 19 9V12C19 12.5523 18.5523 13 18 13C17.4477 13 17 12.5523 17 12V9C17 6.23858 14.7614 4 12 4C9.23858 4 7 6.23858 7 9V12C7 12.5523 6.55228 13 6 13C5.44772 13 5 12.5523 5 12V9Z" fill="black"/>
</svg>
